<?xml version="1.0" standalone="no"?>
<!DOCTYPE svg PUBLIC "-//W3C//DTD SVG 20010904//EN"
 "http://www.w3.org/TR/2001/REC-SVG-20010904/DTD/svg10.dtd">
<svg version="1.0" xmlns="http://www.w3.org/2000/svg"
 width="541.000000pt" height="541.000000pt" viewBox="0 0 541.000000 541.000000"
 preserveAspectRatio="xMidYMid meet">
<metadata>
Created by potrace 1.14, written by Peter Selinger 2001-2017
</metadata>
<g transform="translate(0.000000,541.000000) scale(0.100000,-0.100000)"
fill="#000000" stroke="none">
<path d="M2625 5344 c-249 -24 -469 -110 -664 -259 -252 -191 -410 -437 -486
-755 -26 -110 -27 -123 -22 -310 4 -169 8 -207 30 -287 44 -158 135 -347 221
-457 149 -194 362 -357 555 -427 210 -76 314 -93 536 -86 160 4 177 7 290 42
262 80 480 216 630 395 26 30 56 66 67 78 33 40 118 190 147 261 40 95 80 243
93 336 6 47 8 146 5 240 -5 143 -9 173 -40 283 -20 67 -49 152 -66 188 -105
225 -272 419 -480 559 -109 72 -312 155 -444 180 -80 15 -298 26 -372 19z
m141 -461 c35 -9 64 -20 64 -24 0 -4 -11 -50 -25 -103 -14 -53 -25 -102 -25
-110 0 -14 97 -39 104 -27 2 3 16 53 31 111 15 58 29 106 30 108 1 1 15 -2 31
-7 16 -6 48 -15 70 -21 l42 -10 -29 -113 c-16 -61 -29 -113 -29 -114 0 -1 38
-20 84 -42 186 -90 245 -213 176 -369 -26 -57 -53 -88 -103 -113 l-37 -19 59
-58 c67 -66 76 -90 69 -200 -3 -52 -11 -85 -36 -135 -38 -77 -84 -119 -162
-148 -47 -18 -71 -20 -170 -16 -63 2 -122 7 -131 11 -16 7 -28 -28 -69 -192
-7 -27 -16 -41 -23 -38 -7 2 -38 10 -69 17 -40 9 -58 18 -58 29 0 8 11 57 25
108 14 51 25 97 25 102 0 7 -82 40 -100 40 -4 0 -20 -52 -35 -116 l-29 -115
-36 6 c-19 3 -52 11 -73 16 -36 9 -38 12 -32 37 4 15 17 68 30 118 l22 92 -88
22 c-48 12 -112 29 -142 38 l-55 17 32 72 c18 40 35 76 39 79 3 4 36 0 72 -7
56 -11 68 -11 79 2 15 15 176 642 176 683 0 32 -40 63 -93 71 -67 12 -77 20
-67 57 5 18 14 52 19 74 l11 42 140 -36 c78 -19 143 -33 145 -30 3 3 17 55 32
116 15 62 31 112 36 112 5 0 38 -8 73 -17z"/>
<path d="M2701 4330 c-18 -72 -31 -137 -28 -144 7 -18 185 -50 236 -41 121 20
167 139 83 217 -15 14 -40 32 -57 41 -37 18 -161 57 -184 57 -14 0 -24 -27
-50 -130z"/>
<path d="M2602 3938 c-26 -101 -51 -212 -48 -215 9 -9 211 -43 258 -43 117 0
186 56 175 145 -8 77 -58 120 -190 166 -46 16 -104 32 -128 35 l-44 6 -23 -94z"/>
<path d="M4050 2487 c-218 -59 -276 -126 -122 -140 93 -9 177 -32 246 -68 131
-68 162 -164 95 -297 -44 -88 -217 -264 -379 -388 -36 -27 -77 -57 -92 -67
-34 -21 -36 -54 -5 -68 18 -8 52 0 172 40 187 62 224 78 344 148 116 68 225
173 265 254 42 88 52 170 31 265 -35 162 -108 261 -232 316 -74 33 -214 35
-323 5z"/>
<path d="M1870 2433 c-263 -25 -375 -47 -471 -91 -87 -39 -129 -87 -129 -148
0 -118 83 -180 317 -240 218 -55 359 -68 728 -68 341 1 533 16 715 55 52 11
130 27 174 35 147 27 416 133 509 200 34 25 47 41 47 59 0 22 -4 25 -37 25
-21 0 -96 -12 -168 -26 -307 -60 -766 -90 -1251 -81 -382 6 -614 31 -614 66 0
24 140 80 314 126 119 32 145 47 133 79 -5 14 -23 16 -119 14 -62 0 -129 -3
-148 -5z"/>
<path d="M1870 1840 c-14 -4 -50 -16 -80 -25 -98 -30 -170 -99 -170 -162 0
-59 59 -108 195 -161 264 -102 631 -125 1080 -66 125 16 619 108 680 127 33
10 40 17 40 37 0 20 -21 39 -110 101 -60 43 -119 78 -131 78 -11 1 -54 -8 -95
-18 -298 -79 -788 -110 -1165 -76 -232 21 -279 46 -194 100 41 26 49 42 28 63
-14 14 -41 14 -78 2z"/>
<path d="M1940 1304 c-150 -41 -210 -126 -161 -227 41 -84 133 -133 334 -178
226 -50 607 -65 852 -34 144 18 397 80 500 121 100 40 100 65 -2 124 -33 19
-94 57 -136 83 l-76 49 -78 -16 c-200 -40 -415 -66 -550 -66 -201 0 -528 41
-556 69 -5 5 -3 17 5 30 32 51 -31 73 -132 45z"/>
<path d="M1430 945 c-219 -20 -359 -50 -450 -95 -78 -39 -98 -59 -111 -110
-10 -40 -9 -51 11 -97 56 -130 275 -203 770 -254 58 -6 337 -13 620 -16 550
-5 781 5 1100 48 402 54 660 119 854 215 130 64 170 133 128 220 -23 47 -61
78 -89 72 -14 -3 -18 -13 -18 -48 0 -25 -3 -50 -7 -56 -20 -30 -289 -104 -523
-143 -166 -28 -550 -68 -795 -82 -483 -28 -1199 13 -1517 87 -121 28 -173 48
-173 67 0 25 114 68 311 116 117 28 145 45 120 75 -16 19 -40 19 -231 1z"/>
<path d="M4500 635 c-13 -15 -165 -115 -176 -115 -3 0 -46 -18 -95 -40 -199
-89 -423 -139 -754 -167 -202 -16 -969 -23 -1575 -13 l-305 5 0 -30 c0 -30 1
-30 85 -46 750 -141 1521 -151 2225 -30 94 17 206 43 250 58 116 41 252 119
310 177 56 56 105 144 105 188 0 24 -4 28 -29 28 -16 0 -34 -7 -41 -15z"/>
</g>
</svg>
