<?xml version="1.0" standalone="no"?>
<!DOCTYPE svg PUBLIC "-//W3C//DTD SVG 20010904//EN"
 "http://www.w3.org/TR/2001/REC-SVG-20010904/DTD/svg10.dtd">
<svg version="1.0" xmlns="http://www.w3.org/2000/svg"
 width="512.000000pt" height="512.000000pt" viewBox="0 0 512.000000 512.000000"
 preserveAspectRatio="xMidYMid meet">
<metadata>
Created by potrace 1.14, written by Peter Selinger 2001-2017
</metadata>
<g transform="translate(0.000000,512.000000) scale(0.100000,-0.100000)"
fill="#000000" stroke="none">
<path d="M3021 5107 c-6 -9 -9 -50 -7 -113 6 -176 -19 -298 -92 -454 -44 -95
-138 -188 -313 -314 -277 -200 -359 -265 -460 -366 -117 -116 -166 -178 -227
-290 -68 -125 -86 -191 -83 -314 1 -65 18 -153 43 -221 34 -97 128 -255 211
-360 63 -79 299 -310 336 -329 30 -16 34 -16 51 -1 22 20 20 30 -50 185 -114
253 -198 560 -201 736 -3 139 56 214 381 483 259 215 358 310 454 436 184 243
207 540 64 834 -45 93 -79 121 -107 88z"/>
<path d="M3400 4018 c-212 -91 -430 -213 -575 -322 -146 -109 -232 -206 -283
-313 -23 -50 -27 -72 -29 -163 -3 -145 30 -276 99 -395 28 -47 127 -183 156
-213 54 -57 60 -157 17 -292 -15 -47 -31 -89 -36 -94 -28 -31 3 -91 41 -78 37
12 176 145 227 215 12 18 26 37 30 42 26 33 64 120 77 174 31 132 2 250 -100
414 -86 137 -123 214 -128 263 -5 52 25 141 66 203 50 73 250 266 426 410 89
73 162 139 162 146 0 17 -27 45 -43 45 -7 -1 -55 -19 -107 -42z"/>
<path d="M3977 2418 c-116 -15 -298 -81 -310 -112 -10 -25 10 -56 36 -57 12 0
29 -2 37 -3 8 -2 40 -6 70 -9 222 -26 357 -155 309 -298 -42 -121 -222 -308
-476 -493 -52 -37 -62 -57 -44 -85 12 -19 44 -17 135 9 163 46 340 123 455
198 93 61 193 168 230 246 93 197 -3 480 -193 570 -63 30 -168 44 -249 34z"/>
<path d="M1878 2355 c-2 -1 -66 -5 -143 -9 -77 -3 -149 -7 -160 -10 -11 -2
-42 -7 -70 -10 -229 -30 -381 -92 -423 -173 -16 -30 -15 -98 2 -131 45 -85
211 -167 401 -196 220 -35 320 -41 660 -41 420 0 626 21 910 91 129 32 363
118 405 148 8 6 31 19 51 29 45 23 89 63 89 82 0 17 -45 49 -58 41 -10 -6 -28
-10 -172 -37 -57 -10 -129 -22 -160 -25 -30 -3 -62 -7 -70 -9 -8 -2 -55 -7
-105 -10 -49 -4 -106 -8 -125 -10 -283 -27 -1007 -26 -1245 0 -74 9 -155 28
-155 37 0 20 213 102 335 129 33 7 62 13 65 14 48 11 68 41 46 70 -9 12 -69
28 -78 20z"/>
<path d="M1640 1734 c-47 -14 -92 -32 -101 -40 -8 -8 -20 -14 -25 -14 -15 0
-63 -48 -77 -78 -19 -38 -13 -78 18 -118 44 -58 229 -133 390 -159 179 -29
244 -33 460 -30 127 2 244 6 260 8 17 3 57 8 90 12 115 12 141 16 265 36 171
28 469 87 503 101 34 13 36 46 5 75 -31 27 -189 138 -208 145 -9 3 -67 -5
-130 -18 -63 -13 -133 -26 -155 -30 -22 -3 -42 -7 -45 -9 -3 -1 -32 -6 -65
-10 -33 -3 -74 -8 -91 -11 -174 -27 -500 -36 -734 -21 -152 9 -300 38 -300 58
0 13 25 39 38 39 5 0 17 9 27 20 15 17 16 24 7 45 -14 31 -25 30 -132 -1z"/>
<path d="M1741 1204 c-143 -38 -203 -132 -152 -237 47 -97 234 -177 474 -202
32 -4 67 -8 77 -10 87 -17 389 -24 520 -13 115 10 192 18 210 23 8 2 31 6 50
9 58 9 233 53 301 77 118 40 149 57 149 83 0 30 -10 38 -163 131 l-128 77 -92
-16 c-324 -56 -352 -59 -527 -60 -157 0 -269 6 -370 20 -54 7 -194 36 -202 41
-5 2 -2 16 6 31 31 59 -33 78 -153 46z"/>
<path d="M1328 855 c-2 -2 -46 -6 -98 -9 -249 -18 -451 -74 -527 -148 -80 -78
-39 -203 91 -277 56 -32 222 -85 301 -96 11 -1 49 -7 85 -13 240 -39 526 -55
1000 -56 413 -1 743 15 945 44 33 5 87 11 120 15 68 7 98 11 175 26 30 6 64
12 75 13 101 16 302 67 411 106 251 88 339 183 279 299 -21 42 -71 80 -95 74
-24 -6 -36 -44 -21 -71 13 -24 -6 -43 -64 -68 -41 -17 -160 -52 -205 -60 -14
-3 -52 -11 -85 -19 -33 -7 -78 -16 -100 -19 -22 -4 -65 -11 -95 -16 -81 -14
-257 -39 -320 -45 -30 -3 -75 -8 -100 -10 -87 -10 -305 -25 -425 -31 -95 -4
-550 -4 -651 0 -92 4 -338 23 -409 31 -22 3 -62 7 -90 11 -43 4 -211 31 -310
49 -73 14 -165 50 -165 65 0 22 176 82 338 116 69 14 86 21 94 40 19 41 -5 55
-83 53 -38 -1 -70 -3 -71 -4z"/>
<path d="M4303 513 c-141 -107 -489 -238 -711 -268 -20 -2 -46 -7 -58 -9 -12
-2 -57 -7 -100 -11 -43 -4 -94 -8 -113 -11 -157 -18 -1044 -25 -1685 -13 -209
4 -230 3 -240 -14 -22 -34 10 -57 99 -72 17 -3 53 -10 80 -15 28 -5 70 -12 95
-15 24 -4 47 -8 50 -10 5 -3 44 -8 155 -21 33 -3 68 -8 77 -10 15 -2 114 -12
198 -19 308 -26 944 -26 1145 0 50 7 117 15 170 20 28 3 95 12 150 20 369 55
560 129 698 271 74 76 119 189 85 211 -25 15 -37 11 -95 -34z"/>
</g>
</svg>
